<svg xmlns="http://www.w3.org/2000/svg" viewBox="-113 -64 183 120" width="183" height="120">
<g stroke-linejoin="round" stroke-linecap="round">
<polygon points="-65.8,2 -29.4,23 -29.4,15.5 -65.8,-5.5" fill="#a1a1aa" stroke="#52525b" stroke-width="1.5"/>
<polygon points="68,-33.3 -29.4,23 -29.4,15.5 68,-40.8" fill="#a1a1aa" stroke="#52525b" stroke-width="1.5"/>
<polygon points="31.6,-61.7 68,-40.8 -29.4,15.5 -65.8,-5.5" fill="#e4e4e7" stroke="#52525b" stroke-width="1.5"/>
<polygon points="43.3,-14 43.8,-18 45.3,-22.2 47.6,-26.2 50.5,-29.6 53.7,-32 56.9,-33.3 59.8,-33.2 62.1,-31.9 63.6,-29.4 64.1,-26 63.6,-22 62.1,-17.8 59.8,-13.8 56.9,-10.4 53.7,-8 50.5,-6.7 47.6,-6.8 45.3,-8.1 43.8,-10.6" fill="#71717a" stroke="#52525b" stroke-width="1.2"/>
<polygon points="49.5,-17.6 49.7,-19.2 50.3,-20.9 51.3,-22.5 52.4,-23.8 53.7,-24.8 55,-25.3 56.1,-25.3 57.1,-24.8 57.6,-23.8 57.9,-22.4 57.6,-20.8 57.1,-19.1 56.1,-17.5 55,-16.2 53.7,-15.2 52.4,-14.7 51.3,-14.7 50.3,-15.2 49.7,-16.2" fill="#f4f4f5" stroke="#52525b" stroke-width="1"/>
<polygon points="19.9,-0.5 20.4,-4.5 21.9,-8.7 24.2,-12.7 27.1,-16.1 30.3,-18.5 33.5,-19.8 36.4,-19.7 38.7,-18.4 40.2,-15.9 40.7,-12.5 40.2,-8.5 38.7,-4.3 36.4,-0.3 33.5,3.1 30.3,5.5 27.1,6.8 24.2,6.7 21.9,5.4 20.4,2.9" fill="#71717a" stroke="#52525b" stroke-width="1.2"/>
<polygon points="26.2,-4.1 26.4,-5.7 26.9,-7.4 27.9,-9 29,-10.3 30.3,-11.3 31.6,-11.8 32.8,-11.8 33.7,-11.3 34.3,-10.3 34.5,-8.9 34.3,-7.3 33.7,-5.6 32.8,-4 31.6,-2.7 30.3,-1.7 29,-1.2 27.9,-1.2 26.9,-1.7 26.4,-2.7" fill="#f4f4f5" stroke="#52525b" stroke-width="1"/>
<polygon points="-110.4,28.7 -67.1,53.7 -67.1,-8.8 -110.4,-33.8" fill="#f4f4f5" stroke="#52525b" stroke-width="1.5"/>
<polygon points="-26,30 -67.1,53.7 -67.1,-8.8 -26,-32.5" fill="#e4e4e7" stroke="#52525b" stroke-width="1.5"/>
<polygon points="-69.3,-57.5 -26,-32.5 -67.1,-8.8 -110.4,-33.8" fill="#ffffff" stroke="#52525b" stroke-width="1.5"/>
<polygon points="-105.2,0.8 -72.3,19.7 -72.3,-4.3 -105.2,-23.3" fill="#d4d4d8" stroke="#52525b" stroke-width="1"/>
<polygon points="-39,6.5 -60.6,19 -60.6,-5 -39,-17.5" fill="#d4d4d8" stroke="#52525b" stroke-width="1"/>
<line x1="-110.4" y1="19.7" x2="-67.1" y2="44.7" stroke="#ff4f00" stroke-width="3"/>
<polygon points="-58,46.5 -57.5,42.5 -56,38.3 -53.7,34.3 -50.8,30.9 -47.6,28.5 -44.4,27.2 -41.5,27.3 -39.2,28.6 -37.7,31.1 -37.2,34.5 -37.7,38.5 -39.2,42.7 -41.5,46.7 -44.4,50.1 -47.6,52.5 -50.8,53.8 -53.7,53.7 -56,52.4 -57.5,49.9" fill="#71717a" stroke="#52525b" stroke-width="1.2"/>
<polygon points="-51.8,42.9 -51.6,41.3 -51,39.6 -50.1,38 -48.9,36.7 -47.6,35.7 -46.3,35.2 -45.2,35.2 -44.3,35.7 -43.7,36.7 -43.5,38.1 -43.7,39.7 -44.3,41.4 -45.2,43 -46.3,44.3 -47.6,45.3 -48.9,45.8 -50.1,45.8 -51,45.3 -51.6,44.3" fill="#f4f4f5" stroke="#52525b" stroke-width="1"/>
</g>
</svg>
