<?xml version="1.0" encoding="UTF-8"?>
<svg xmlns="http://www.w3.org/2000/svg" viewBox="0 0 501.87 140.64">
  <g fill="#000000">
    <path d="M127.94,102.31c0,7.06-5.72,12.77-12.77,12.77h-25.65c-7.63,0-14.48,3.35-19.16,8.66-4.68-5.31-11.53-8.66-19.16-8.66h-25.64c-7.05,0-12.77-5.72-12.77-12.77v-16H0v16c0,14.11,11.44,25.55,25.55,25.55h25.64c7.05,0,12.77,5.72,12.77,12.77h12.77c0-7.06,5.72-12.77,12.77-12.77h25.64c14.11,0,25.55-11.44,25.55-25.55v-16h-12.77v16Z"/>
    <path d="M132.87,38.37h0s-17.71,0-17.71,0v-12.77c7.05,0,12.77-5.72,12.77-12.77h0s-51.19,0-51.19,0V0h-12.77v12.82H12.77c0,7.06,5.72,12.77,12.77,12.77v12.77H7.84s-7.84,0-7.84,0v41.55h12.77v-28.78h115.16v28.78h12.77v-41.55h-7.84ZM38.32,25.6h64.06v12.77H38.32v-12.77Z"/>
    <polygon points="54.35 102.33 68.44 102.33 86.36 63.91 72.26 63.91 54.35 102.33"/>
    <polygon points="31.27 83.17 40.21 102.33 54.3 102.33 45.37 83.17 54.35 63.91 40.26 63.91 31.27 83.17"/>
    <polygon points="100.45 102.33 109.43 83.07 100.5 63.91 86.4 63.91 95.34 83.07 86.36 102.33 100.45 102.33"/>
    <path d="M342.25,54.67c-3.91-8.75-11.85-14.04-23.02-14.04-8.06,0-14.5,2.76-18.87,8.29v-6.79h-12.43v69.17h12.77v-19.33c4.37,5.29,10.7,7.94,18.53,7.94,11.16,0,19.1-5.29,23.02-14.04,1.96-4.37,3.11-9.78,3.11-15.54s-1.15-11.28-3.11-15.65ZM329.93,81.02c-2.42,5.41-7.37,8.17-13.93,8.17-9.44,0-15.42-6.21-15.42-17.49v-2.88c0-11.28,5.98-17.38,15.42-17.38,6.56,0,11.51,2.65,13.93,8.06,1.15,2.76,1.84,6.33,1.84,10.82s-.69,7.94-1.84,10.7Z"/>
    <path d="M447.55,85.97c3.91,8.75,11.85,14.04,23.02,14.04,8.06,0,14.5-2.76,18.87-8.29v6.79h12.43V29.35h-12.77v19.33c-4.37-5.29-10.7-7.94-18.53-7.94-11.16,0-19.1,5.29-23.02,14.04-1.96,4.37-3.11,9.78-3.11,15.54s1.15,11.28,3.11,15.65ZM459.86,59.62c2.42-5.41,7.37-8.17,13.93-8.17,9.44,0,15.42,6.21,15.42,17.49v2.88c0,11.28-5.98,17.38-15.42,17.38-6.56,0-11.51-2.65-13.93-8.06-1.15-2.76-1.84-6.33-1.84-10.82s.69-7.94,1.84-10.7Z"/>
    <path d="M441.35,42.12v11.06c-10.21,0-18.74,4.36-18.74,15.64h-.02v29.69h-12.77v-56.39h12.77v6.66c4.37-5.41,10.77-6.66,18.76-6.66Z"/>
    <path d="M176.01,88.8c-1.27-2.77-1.84-5.99-1.84-9.45h12.45c0,2.19.35,3.92,1.15,5.42,1.61,3.57,5.19,5.53,10.95,5.53,5.19,0,8.99-1.27,10.37-4.38.35-.92.58-1.73.58-2.88s-.23-2.19-.58-3c-1.73-3.57-6.34-4.61-14.29-6.22-7.38-1.73-14.52-4.5-17.4-10.83-.81-1.84-1.15-3.69-1.15-6.22s.46-4.73,1.38-6.68c2.88-6.45,10.6-9.91,20.63-9.91s17.63,3.23,20.86,10.03c1.04,2.42,1.5,5.19,1.5,8.3h-12.1c0-1.96-.35-3.34-.92-4.73-1.5-3.11-5.07-4.73-9.57-4.73s-7.61,1.15-8.87,3.8c-.35.81-.46,1.73-.46,2.65s.12,1.73.46,2.31c1.84,3.92,8.07,5.07,14.29,6.45,8.18,2.07,15.33,4.73,18.32,11.18.81,1.84,1.15,3.92,1.15,6.34,0,2.88-.46,5.19-1.38,7.49-3.34,7.15-12.45,10.6-23.05,10.6-11.29,0-19.13-3.69-22.47-11.06Z"/>
    <path d="M281.47,63.22v34.92h-12.68v-32.38c0-10.26-4.15-14.75-12.68-14.75-8.99,0-13.95,5.19-13.95,15.33v31.81h-12.79V29.35h12.79v18.66c3.92-5.19,9.8-7.84,17.63-7.84,13.6,0,21.67,7.84,21.67,23.05Z"/>
    <polygon points="360.61 111.29 373.69 111.29 403.27 41.67 389.44 41.67 373.42 83.73 358.09 41.67 343.92 41.67 366.51 97.56 360.61 111.29"/>
  </g>
</svg>
